<?xml version="1.0" encoding="UTF-8" standalone="no"?>
<svg
   version="1.1"
   x="0px"
   y="0px"
   viewBox="0 0 60.641155 61.428776"
   enable-background="new 0 0 100 100"
   xml:space="preserve"
   id="svg29103"
   width="60.641155"
   height="61.428776"
   xmlns="http://www.w3.org/2000/svg"
   xmlns:svg="http://www.w3.org/2000/svg"><defs
     id="defs29107" /><g
     id="g29228"
     style="fill:#000000;fill-opacity:1;stroke:none;stroke-opacity:1"><path
       d="m 11.390578,15.088776 -3.7400004,-0.2 c -2.51,-0.13 -5.1,1.64 -5.87,4.05 l -1.52999999,4.77 c -0.77,2.4 0.29,5.35 2.41999999,6.71 l 3.23,2.06 c 0.08,1.19 0.25,2.37 0.5,3.5 0.24,1.09 0.55,2.19 0.95,3.26 l -2.08,3.19 c -1.38,2.12 -1.13,5.24 0.57,7.11 l 3.37,3.71 c 1.7000004,1.87 4.7800004,2.42 7.0200004,1.25 l 3.19,-1.66 c 2.2,1.12 4.54,1.9 6.95,2.33 l 1.57,3.08 c 0.97,1.92 3.17,3.18 5.33,3.18 0.37,0 0.75,-0.04 1.11,-0.12 l 4.9,-1.06 c 2.47,-0.53 4.49,-2.93 4.6,-5.45 l 0.14,-3.16 c 2.24,-1.43 4.22,-3.19 5.9,-5.26 l 3.07,0.17 c 2.53,0.13 5.1,-1.64 5.87,-4.05 l 1.53,-4.77 c 0.77,-2.4 -0.29,-5.35 -2.42,-6.71 l -2.51,-1.6 c -0.07,-1.33 -0.25,-2.66 -0.53,-3.95 -0.29,-1.34 -0.69,-2.67 -1.2,-3.94 l 1.64,-2.52 c 1.38,-2.12 1.13,-5.24 -0.57,-7.11 l -3.37,-3.7100001 c -1.7,-1.87 -4.78,-2.42 -7.02,-1.25 l -2.86,1.49 c -2.32,-1.13 -4.78,-1.89 -7.33,-2.26 l -1.52,-2.99 c -1.14,-2.25000004 -3.97,-3.60000004 -6.44,-3.06000004 l -4.9,1.06000004 c -2.47,0.53 -4.49,2.93 -4.6,5.45 l -0.16,3.6400001 c -1.96,1.35 -3.7,2.96 -5.21,4.82 z m 1.89,2.45 c 1.56,-2.05 3.44,-3.79 5.59,-5.17 0.41,-0.26 0.67,-0.71 0.69,-1.2 l 0.19,-4.4100001 c 0.05,-1.16 1.09,-2.4 2.23,-2.65 l 4.9,-1.06 c 1.14,-0.25 2.6,0.45 3.13,1.49 l 1.88,3.7 c 0.23,0.45 0.67,0.76 1.17,0.81 2.73,0.3 5.34,1.1100001 7.78,2.3900001 0.44,0.23 0.96,0.23 1.39,0 l 3.55,-1.8500001 c 1.03,-0.54 2.63,-0.25 3.41,0.6100001 l 3.37,3.71 c 0.78,0.86 0.91,2.48 0.28,3.45 l -2.08,3.19 c -0.28,0.42 -0.32,0.96 -0.12,1.42 0.58,1.33 1.03,2.72 1.33,4.13 0.3,1.36 0.46,2.77 0.49,4.19 0.01,0.5 0.27,0.96 0.69,1.23 l 3.18,2.02 c 0.98,0.63 1.53,2.15 1.18,3.26 l -1.53,4.77 c -0.36,1.11 -1.68,2.04 -2.85,1.97 l -3.85,-0.21 c -0.5,-0.03 -0.97,0.19 -1.27,0.59 -1.71,2.25 -3.81,4.12 -6.23,5.56 -0.44,0.26 -0.71,0.72 -0.73,1.23 l -0.17,3.96 c -0.05,1.16 -1.09,2.4 -2.23,2.65 l -4.9,1.06 c -1.14,0.25 -2.6,-0.45 -3.13,-1.49 l -1.91,-3.77 c -0.22,-0.44 -0.64,-0.74 -1.12,-0.81 -2.6,-0.37 -5.1,-1.21 -7.43,-2.49 -0.23,-0.12 -0.47,-0.19 -0.72,-0.19 -0.25,0 -0.48,0.06 -0.69,0.17 l -3.88,2.02 c -1.03,0.54 -2.63,0.25 -3.41,-0.61 l -3.3700004,-3.71 c -0.78,-0.86 -0.91,-2.48 -0.28,-3.45 l 2.4900004,-3.83 c 0.27,-0.41 0.32,-0.92 0.14,-1.38 -0.4600004,-1.16 -0.8300004,-2.34 -1.0800004,-3.52 -0.26,-1.22 -0.42,-2.49 -0.47,-3.78 -0.02,-0.49 -0.28,-0.94 -0.69,-1.21 l -3.88,-2.47 c -0.98,-0.63 -1.53,-2.15 -1.18,-3.26 l 1.53,-4.77 c 0.36,-1.11 1.69,-2.04 2.85,-1.97 l 4.5200004,0.24 c 0.5,0.03 0.97,-0.2 1.28,-0.59 z"
       id="path29095"
       style="fill:#000000;fill-opacity:1;stroke:none;stroke-opacity:1" /><path
       d="m 22.030578,43.568776 c 2.5,1.61 5.35,2.44 8.25,2.44 1.09,0 2.18,-0.12 3.27,-0.35 8.24,-1.78 13.49,-9.94 11.71,-18.18 -1.78,-8.24 -9.94,-13.5 -18.18,-11.71 -8.24,1.78 -13.49,9.94 -11.71,18.18 0.86,3.99 3.23,7.41 6.66,9.62 z m -2.05,-19.51 c 1.78,-2.76 4.52,-4.66 7.73,-5.36 0.87,-0.19 1.74,-0.28 2.6,-0.28 5.66,0 10.76,3.94 12.01,9.69 0.69,3.21 0.1,6.5 -1.68,9.26 -1.78,2.76 -4.52,4.66 -7.73,5.36 -3.21,0.69 -6.5,0.1 -9.26,-1.68 -2.76,-1.78 -4.66,-4.52 -5.36,-7.73 -0.69,-3.21 -0.1,-6.5 1.68,-9.26 z"
       id="path29097"
       style="fill:#000000;fill-opacity:1;stroke:none;stroke-opacity:1" /></g></svg>
