<?xml version="1.0" encoding="UTF-8" standalone="no"?>
<svg
   data-name="Interface B out"
   viewBox="0 0 58 58"
   x="0px"
   y="0px"
   version="1.1"
   id="svg10"
   width="58"
   height="58"
   xmlns="http://www.w3.org/2000/svg"
   xmlns:svg="http://www.w3.org/2000/svg">
  <defs
     id="defs14" />
  <path
     d="m 4.4304302,15.285207 c -1.05,0.34 -2.81,3.45 -3.23,4.77 -0.42,1.31 -0.71,3.29 -0.64,4.38 0.07,1.1 2.55,3.54 3.62,4.22 1.07,0.68 2.04,2.44 2.16,3.92 l 0.29,1.35 0.28,1.31 c 0.48,1.35 0.31,3.31 -0.37,4.37 -0.69,1.05 -1.43,2.8 -1.65,3.87 -0.22,1.07 1.59,4.16 2.51,5.18 0.93,1.02 2.4899997,2.26 3.4799998,2.75 0.99,0.49 4.3,-0.41 5.37,-0.97 1.07,-0.56 3.1,-0.5 4.51,0.12 1.41,0.62 5.8,2.38 6.33,3.42 0.53,1.04 1.63,2.48 2.45,3.22 0.82,0.73 4.39,0.7 5.74,0.41 1.35,-0.29 3.2,-1.03 4.12,-1.64 0.92,-0.61 1.79,-3.83 1.83,-4.92 0.04,-1.09 1.18,-2.78 2.52,-3.77 1.34,-0.98 5.1,-4.11 6.15,-4.05 1.06,0.06 2.78,-0.18 3.82,-0.52 1.05,-0.34 2.81,-3.45 3.23,-4.77 0.42,-1.31 0.8,-4.87 0.15,-5.75 -0.65,-0.89 -1.9,-2.07 -2.77,-2.63 -0.87,-0.56 -1.68,-2.35 -1.79,-3.98 l -0.32,-1.5 -0.33,-1.55 c -0.6,-1.58 -0.62,-3.59 -0.05,-4.46 0.57,-0.87 1.22,-2.47 1.45,-3.55 0.22,-1.08 -1.59,-4.16 -2.51,-5.1800004 -0.93,-1.0200001 -2.49,-2.2600001 -3.48,-2.7500001 -0.99,-0.49 -4.22,0.37 -5.2,0.88 -0.98,0.51 -2.98,0.42 -4.46,-0.19 -1.48,-0.61 -6.05,-2.27 -6.56,-3.29 -0.51,-1.02 -1.61,-2.45 -2.43,-3.17999998 -0.82,-0.73 -4.39,-0.7 -5.74,-0.41 -1.35,0.29 -3.2,1.02999998 -4.12,1.63999998 -0.92,0.61 -1.79,3.94 -1.84,5.15 -0.05,1.21 -1.07,2.9600005 -2.26,3.8900005 -1.19,0.93 -4.8200001,3.79 -6.0599998,3.72 -1.24,-0.07 -3.11,0.16 -4.16,0.5 z m 21.7199998,0.23 c 7.44,-1.61 14.78,3.12 16.4,10.56 1.61,7.44 -3.12,14.78 -10.56,16.4 -7.44,1.61 -14.78,-3.12 -16.4,-10.56 -1.61,-7.44 3.12,-14.78 10.56,-16.4 z"
     id="path4"
     style="fill:#ffffff;fill-opacity:1" />
</svg>
