<?xml version="1.0" encoding="UTF-8" standalone="no"?>
<svg
   version="1.1"
   viewBox="-5 -10 100 100"
   id="svg12"
   width="100"
   height="100"
   xmlns="http://www.w3.org/2000/svg"
   xmlns:svg="http://www.w3.org/2000/svg">
  <defs
     id="defs16" />
  <path
     d="m 57.370714,27.792374 h -7.0742 c -0.64844,0 -1.1719,-0.52344 -1.1719,-1.1719 0,-0.64844 0.52344,-1.1719 1.1719,-1.1719 h 7.0742 v -3.4922 h -7.0742 c -0.64844,0 -1.1719,-0.52344 -1.1719,-1.1719 0,-0.64846 0.52344,-1.1719 1.1719,-1.1719 h 7.0742 v -3.4961 h -7.0742 c -0.64844,0 -1.1719,-0.52344 -1.1719,-1.1719 0,-0.64844 0.52344,-1.1719 1.1719,-1.1719 h 7.0039 c -0.30469,-2.8906 -1.6094,-5.4844005 -3.5547,-7.4297005 -7.2461,-7.3164 -19.992,-2.8438 -21.047,7.4297005 h 7 c 0.64844,0 1.1719,0.52344 1.1719,1.1719 0,0.64844 -0.52344,1.1719 -1.1719,1.1719 h -7.0703 v 3.4961 h 7.0703 c 0.64844,0 1.1719,0.52344 1.1719,1.1719 0,0.64846 -0.52344,1.1719 -1.1719,1.1719 h -7.0703 v 3.4922 h 7.0703 c 0.64844,0 1.1719,0.52344 1.1719,1.1719 0,0.64844 -0.52344,1.1719 -1.1719,1.1719 h -7.0703 v 5.375 h 24.746 v -5.375 z"
     id="path2"
     style="opacity:1;fill:#ffffff;fill-opacity:1;stroke:none;stroke-opacity:1" />
  <path
     d="m 61.565714,36.870374 c -0.89453,-0.12891 -1.7266,0.49219 -1.8555,1.3906 -0.91406,7.2031 -7.4219,13.164 -14.711,13.047 -7.2891,0.11719 -13.797,-5.8438 -14.711,-13.047 -0.39062,-2.125 -3.4648,-1.7109 -3.2422,0.46484 1,7.6328 7.1406,14.25 14.711,15.562 v 13.855 c -1.9219,0.13281 -9.8672,2.3516 -9.8672,6.1875 0,0.64844 0.52344,1.1719 1.1719,1.1719 h 23.871 c 0.64844,0 1.1719,-0.52344 1.1719,-1.1719 0,-3.8398 -7.9492,-6.0547 -9.8672,-6.1875 v -13.855 c 3.2031,-0.59375 6.207,-2.0625 8.6875,-4.2812 3.2617,-2.9141 5.3984,-6.9219 6.0234,-11.281 0.12891,-0.89453 -0.49219,-1.7266 -1.3906,-1.8516 z"
     id="path4"
     style="fill:#ffffff;fill-opacity:1" />
  <path
     d="m 44.999714,48.445374 c 6.832,0 12.375,-5.5391 12.375,-12.371 v -0.5625 h -24.746 v 0.5625 c 0,6.832 5.5391,12.371 12.375,12.371 z"
     id="path6"
     style="fill:#ffffff;fill-opacity:1" />
  <circle
     style="fill:none;stroke:#ffffff;stroke-width:6.94546;stroke-opacity:1"
     id="path351"
     cx="45"
     cy="40"
     r="46.527271" />
</svg>
