<?xml version="1.0" encoding="UTF-8" standalone="no"?>
<!-- Created with Inkscape (http://www.inkscape.org/) -->

<svg
   version="1.1"
   id="svg2"
   width="512"
   height="512"
   viewBox="0 0 512 512"
   sodipodi:docname="logo-512E.svg"
   inkscape:version="1.2.2 (732a01da63, 2022-12-09)"
   xmlns:inkscape="http://www.inkscape.org/namespaces/inkscape"
   xmlns:sodipodi="http://sodipodi.sourceforge.net/DTD/sodipodi-0.dtd"
   xmlns="http://www.w3.org/2000/svg"
   xmlns:svg="http://www.w3.org/2000/svg">
  <defs
     id="defs6" />
  <sodipodi:namedview
     id="namedview4"
     pagecolor="#ffffff"
     bordercolor="#000000"
     borderopacity="0.25"
     inkscape:showpageshadow="2"
     inkscape:pageopacity="0.0"
     inkscape:pagecheckerboard="0"
     inkscape:deskcolor="#d1d1d1"
     showgrid="false"
     inkscape:zoom="0.78515625"
     inkscape:cx="292.29851"
     inkscape:cy="299.9403"
     inkscape:window-width="1920"
     inkscape:window-height="991"
     inkscape:window-x="-9"
     inkscape:window-y="-9"
     inkscape:window-maximized="1"
     inkscape:current-layer="g8" />
  <g
     inkscape:groupmode="layer"
     inkscape:label="Image"
     id="g8">
    <path
       style="fill:#000000"
       d="M 0,256.00001 V 0 h 256 256 v 256.00001 256 H 256 0 Z m 168.79381,158.45224 c 16.89245,-8.3487 35.14636,-31.28593 51.61163,-64.85336 16.6526,-33.94936 26.50032,-61.97924 50.48944,-143.70978 8.81601,-30.036 16.96659,-57.11656 18.11241,-60.17903 l 2.08329,-5.56811 23.70471,0.5721 c 26.41731,0.63757 30.73331,0.12023 40.94743,-4.90817 7.26941,-3.57871 14.45669,-10.88154 17.52418,-17.80589 2.7805,-6.27653 3.57581,-19.055734 1.3033,-20.941746 -2.74982,-2.28215 -8.20547,-1.36783 -14.75992,2.473632 -14.98743,8.783894 -24.52098,8.678244 -98.94955,-1.09651 -28.62964,-3.759952 -58.37078,-5.535502 -70.66233,-4.218552 -27.86304,2.98533 -50.52694,21.807616 -54.39966,45.178716 -2.38752,14.40821 4.42881,29.4744 15.70126,34.70461 7.45876,3.46073 15.86475,1.55755 17.08579,-3.86834 1.85562,-8.24568 2.80401,-10.58763 6.57343,-16.23238 4.87833,-7.30537 14.05427,-14.41616 21.34078,-16.5378 2.75,-0.80073 8.375,-1.89327 12.5,-2.42787 12.95663,-1.67919 39.74701,-0.67927 39.28437,1.46624 -0.1186,0.55 -2.9699,7.75 -6.33623,16 -8.68592,21.28693 -22.88692,64.32744 -36.95385,112 -12.9208,43.78835 -16.90965,56.17513 -23.18581,72 -12.29803,31.00859 -26.85072,53.12482 -40.80848,62.01807 -7.92788,5.05128 -8.88855,8.08406 -4.29137,13.5475 6.86694,8.16089 18.63121,9.03598 32.08518,2.38667 z"
       id="path293" />
  </g>
</svg>
