<?xml version="1.0" encoding="UTF-8" standalone="no"?>
<svg
   version="1.1"
   viewBox="-5 -10 100 100"
   id="svg12"
   width="100"
   height="100"
   xmlns="http://www.w3.org/2000/svg"
   xmlns:svg="http://www.w3.org/2000/svg">
  <defs
     id="defs16" />
  <g
     id="g7548"
     transform="matrix(0.8079387,0.23389072,-0.24214134,0.83643916,33.058791,0.23875304)"
     style="fill:#ffffff;fill-opacity:1;stroke:none;stroke-opacity:1">
    <path
       d="m 57.370714,27.792374 h -7.0742 c -0.64844,0 -1.1719,-0.52344 -1.1719,-1.1719 0,-0.64844 0.52344,-1.1719 1.1719,-1.1719 h 7.0742 v -3.4922 h -7.0742 c -0.64844,0 -1.1719,-0.52344 -1.1719,-1.1719 0,-0.64846 0.52344,-1.1719 1.1719,-1.1719 h 7.0742 v -3.4961 h -7.0742 c -0.64844,0 -1.1719,-0.52344 -1.1719,-1.1719 0,-0.64844 0.52344,-1.1719 1.1719,-1.1719 h 7.0039 c -0.30469,-2.8906 -1.6094,-5.4844005 -3.5547,-7.4297005 -7.2461,-7.3164 -19.992,-2.8438 -21.047,7.4297005 h 7 c 0.64844,0 1.1719,0.52344 1.1719,1.1719 0,0.64844 -0.52344,1.1719 -1.1719,1.1719 h -7.0703 v 3.4961 h 7.0703 c 0.64844,0 1.1719,0.52344 1.1719,1.1719 0,0.64846 -0.52344,1.1719 -1.1719,1.1719 h -7.0703 v 3.4922 h 7.0703 c 0.64844,0 1.1719,0.52344 1.1719,1.1719 0,0.64844 -0.52344,1.1719 -1.1719,1.1719 h -7.0703 v 5.375 h 24.746 v -5.375 z"
       id="path2"
       style="opacity:1;fill:#ffffff;fill-opacity:1;stroke:none;stroke-opacity:1" />
    <path
       d="m 61.565714,36.870374 c -0.89453,-0.12891 -1.7266,0.49219 -1.8555,1.3906 -0.91406,7.2031 -7.4219,13.164 -14.711,13.047 -7.2891,0.11719 -13.797,-5.8438 -14.711,-13.047 -0.39062,-2.125 -3.4648,-1.7109 -3.2422,0.46484 1,7.6328 7.1406,14.25 14.711,15.562 v 13.855 c -1.9219,0.13281 -9.8672,2.3516 -9.8672,6.1875 0,0.64844 0.52344,1.1719 1.1719,1.1719 h 23.871 c 0.64844,0 1.1719,-0.52344 1.1719,-1.1719 0,-3.8398 -7.9492,-6.0547 -9.8672,-6.1875 v -13.855 c 3.2031,-0.59375 6.207,-2.0625 8.6875,-4.2812 3.2617,-2.9141 5.3984,-6.9219 6.0234,-11.281 0.12891,-0.89453 -0.49219,-1.7266 -1.3906,-1.8516 z"
       id="path4"
       style="fill:#ffffff;fill-opacity:1;stroke:none;stroke-opacity:1" />
    <path
       d="m 44.999714,48.445374 c 6.832,0 12.375,-5.5391 12.375,-12.371 v -0.5625 h -24.746 v 0.5625 c 0,6.832 5.5391,12.371 12.375,12.371 z"
       id="path6"
       style="fill:#ffffff;fill-opacity:1;stroke:none;stroke-opacity:1" />
  </g>
  <path
     d="m 41.525238,22.331035 c -0.13567,-0.09501 -0.307142,-0.11364 -0.461654,-0.05962 l -15.309823,5.687737 c -0.195967,0.07452 -0.322216,0.258952 -0.322216,0.467605 V 45.42272 c -1.019417,-1.454985 -2.71904,-2.414403 -4.642922,-2.414403 -3.110974,0 -5.64338,2.503825 -5.64338,5.583291 0,3.079466 2.532502,5.579476 5.64338,5.579476 3.110879,0 5.64724,-2.503825 5.64724,-5.579476 V 36.012874 l 14.300199,-5.151202 v 14.560814 c -1.019417,-1.454984 -2.71904,-2.414402 -4.637278,-2.414402 -3.114737,0 -5.64724,2.503825 -5.64724,5.583291 0,3.079466 2.532503,5.579476 5.64724,5.579476 3.114737,0 5.643381,-2.503825 5.643381,-5.579476 v -25.85235 c 0,-0.163941 -0.08103,-0.318567 -0.216696,-0.40799 z"
     id="path28370"
     style="fill:#ffffff;fill-opacity:1;stroke:none;stroke-width:0.479642;stroke-opacity:1" />
  <path
     d="m 19.072433,37.361146 c 0,-0.02981 -0.0057,-0.05403 -0.0057,-0.08383 V 24.787757 l 9.18599,-3.314205 c 0.195968,-0.06893 0.325984,-0.258953 0.325984,-0.462016 l 0.06972,-7.367922 c 0,-0.163941 -0.08103,-0.318568 -0.216696,-0.411715 -0.135669,-0.09501 -0.307142,-0.11364 -0.461653,-0.05961 l -9.581543,3.556385 c -0.195968,0.07452 -0.325984,0.258953 -0.325984,0.467605 v 16.99024 c -1.019417,-1.454985 -2.713396,-2.408823 -4.633515,-2.408823 -3.114737,0 -5.6472401,2.503825 -5.6472401,5.583291 0,3.079467 2.5325031,5.579476 5.6472401,5.579476 3.114737,0 5.643381,-2.503825 5.643381,-5.579476 z"
     id="path28372"
     style="fill:#ffffff;fill-opacity:1;stroke:none;stroke-width:0.479642;stroke-opacity:1" />
  <path
     d="m 36.432377,15.819667 c 0.276993,0 0.503124,-0.223556 0.503124,-0.497427 v -1.087947 c 0,-0.273857 -0.226117,-0.497427 -0.503124,-0.497427 -0.277008,0 -0.503124,0.223556 -0.503124,0.497427 v 1.087947 c 0,0.273857 0.226116,0.497427 0.503124,0.497427 z"
     id="path28374"
     style="fill:#ffffff;fill-opacity:1;stroke:none;stroke-width:0.479642;stroke-opacity:1" />
  <path
     d="m 36.432377,19.962663 c 0.276993,0 0.503124,-0.223556 0.503124,-0.497427 v -1.087948 c 0,-0.273856 -0.226117,-0.497426 -0.503124,-0.497426 -0.277008,0 -0.503124,0.223556 -0.503124,0.497426 v 1.087948 c 0,0.273857 0.226116,0.497427 0.503124,0.497427 z"
     id="path28376"
     style="fill:#ffffff;fill-opacity:1;stroke:none;stroke-width:0.479642;stroke-opacity:1" />
  <path
     d="m 37.979374,17.351054 h 1.100409 c 0.276993,0 0.503124,-0.223556 0.503124,-0.497427 0,-0.27387 -0.226117,-0.497426 -0.503124,-0.497426 h -1.100409 c -0.276993,0 -0.503124,0.223556 -0.503124,0.497426 0,0.273871 0.226117,0.497427 0.503124,0.497427 z"
     id="path28378"
     style="fill:#ffffff;fill-opacity:1;stroke:none;stroke-width:0.479642;stroke-opacity:1" />
  <path
     d="m 33.788926,17.351054 h 1.100409 c 0.276993,0 0.503124,-0.223556 0.503124,-0.497427 0,-0.27387 -0.226116,-0.497426 -0.503124,-0.497426 h -1.100409 c -0.276993,0 -0.503123,0.223556 -0.503123,0.497426 0,0.273871 0.226116,0.497427 0.503123,0.497427 z"
     id="path28380"
     style="fill:#ffffff;fill-opacity:1;stroke:none;stroke-width:0.479642;stroke-opacity:1" />
  <path
     d="m 10.579625,45.185479 -0.7782261,0.769414 c -0.195968,0.193748 -0.195968,0.506726 0,0.700498 0.09987,0.09874 0.2261161,0.143448 0.3561321,0.143448 0.130017,0 0.256265,-0.0503 0.356133,-0.143448 l 0.778226,-0.769413 c 0.195967,-0.193749 0.195967,-0.506727 0,-0.700499 -0.195968,-0.193772 -0.51253,-0.193748 -0.708522,0 z"
     id="path28382"
     style="fill:#ffffff;fill-opacity:1;stroke:none;stroke-width:0.479642;stroke-opacity:1" />
  <path
     d="m 7.6158729,48.116147 -0.778226,0.769413 c -0.1959675,0.193748 -0.1959675,0.506726 0,0.700499 0.099868,0.09874 0.226116,0.143447 0.356133,0.143447 0.130016,0 0.256265,-0.0503 0.356132,-0.143447 l 0.778226,-0.769414 c 0.195968,-0.193748 0.195968,-0.506726 0,-0.700498 -0.195967,-0.193773 -0.51253,-0.193749 -0.708522,0 z"
     id="path28384"
     style="fill:#ffffff;fill-opacity:1;stroke:none;stroke-width:0.479642;stroke-opacity:1" />
  <path
     d="m 10.510162,48.116147 c -0.195968,-0.193749 -0.5125301,-0.193749 -0.7085221,0 -0.195992,0.193748 -0.195968,0.506726 0,0.700498 l 0.7782261,0.769414 c 0.09987,0.09874 0.226116,0.143447 0.356133,0.143447 0.130016,0 0.256265,-0.0503 0.356132,-0.143447 0.195968,-0.193749 0.195968,-0.506727 0,-0.700499 l -0.778226,-0.769413 z"
     id="path28386"
     style="fill:#ffffff;fill-opacity:1;stroke:none;stroke-width:0.479642;stroke-opacity:1" />
  <path
     d="m 7.5497869,45.185479 c -0.195968,-0.193748 -0.512531,-0.193748 -0.7085221,0 -0.1959917,0.193748 -0.1959676,0.506727 0,0.700499 l 0.7782261,0.769413 c 0.09987,0.09874 0.226116,0.143448 0.356132,0.143448 0.130017,0 0.256266,-0.0503 0.356133,-0.143448 0.195968,-0.193748 0.195968,-0.506726 0,-0.700498 l -0.778226,-0.769414 z"
     id="path28388"
     style="fill:#ffffff;fill-opacity:1;stroke:none;stroke-width:0.479642;stroke-opacity:1" />
  <circle
     style="fill:none;stroke:#ffffff;stroke-width:6.94546;stroke-opacity:1"
     id="path351"
     cx="45"
     cy="40"
     r="46.527271" />
</svg>
